HIERARCHY
ROOT Hips
{
	OFFSET 0.00000 0.00000 0.00000
	CHANNELS 6 Xposition Yposition Zposition Zrotation Yrotation Xrotation 
	JOINT LHipJoint
	{
		OFFSET 0 0 0
		CHANNELS 3 Zrotation Yrotation Xrotation
		JOINT LeftHip
		{
			OFFSET 1.28858 -1.83292 1.03970
			CHANNELS 3 Zrotation Yrotation Xrotation
			JOINT LeftKnee
			{
				OFFSET 2.47846 -6.80952 0.00000
				CHANNELS 3 Zrotation Yrotation Xrotation
				JOINT LeftAnkle
				{
					OFFSET 2.75274 -7.56311 0.00000
					CHANNELS 3 Zrotation Yrotation Xrotation
					JOINT LeftToe
					{
						OFFSET 0.12848 -0.35301 1.68223
						CHANNELS 3 Zrotation Yrotation Xrotation
						End Site
						{
							OFFSET 0.00000 -0.00000 0.87311
						}
					}
				}
			}
		}
	}
	JOINT RHipJoint
	{
		OFFSET 0 0 0
		CHANNELS 3 Zrotation Yrotation Xrotation
		JOINT RightHip
		{
			OFFSET -1.31183 -1.83292 1.03970
			CHANNELS 3 Zrotation Yrotation Xrotation
			JOINT RightKnee
			{
				OFFSET -2.44740 -6.72417 0.00000
				CHANNELS 3 Zrotation Yrotation Xrotation
				JOINT RightAnkle
				{
					OFFSET -2.67343 -7.34519 0.00000
					CHANNELS 3 Zrotation Yrotation Xrotation
					JOINT RightToe
					{
						OFFSET -0.16914 -0.46471 1.77626
						CHANNELS 3 Zrotation Yrotation Xrotation
						End Site
						{
							OFFSET -0.00000 -0.00000 0.92777
						}
					}
				}
			}
		}
	}
	JOINT lowerback
	{
		OFFSET 0 0 0
		CHANNELS 3 Zrotation Yrotation Xrotation
		JOINT Chest
		{
			OFFSET 0.01249 2.14252 0.03842
			CHANNELS 3 Zrotation Yrotation Xrotation
			JOINT Chest2
			{
				OFFSET -0.02957 2.14199 -0.03751
				CHANNELS 3 Zrotation Yrotation Xrotation
				JOINT lowerneck
				{
					OFFSET 0 0 0
					CHANNELS 3 Zrotation Yrotation Xrotation
					JOINT Neck
					{
						OFFSET -0.01678 1.65709 -0.05476
						CHANNELS 3 Zrotation Yrotation Xrotation
						JOINT Head
						{
							OFFSET 0.07912 1.58331 -0.11843
							CHANNELS 3 Zrotation Yrotation Xrotation
							End Site
							{
								OFFSET 0.03298 1.73940 -0.04271
							}
						}
					}
				}
				JOINT LeftCollar
				{
					OFFSET 0 0 0
					CHANNELS 3 Zrotation Yrotation Xrotation
					JOINT LeftShoulder
					{
						OFFSET 3.39556 1.16496 0.08673
CHANNELS 3 Zrotation Xrotation Yrotation
						JOINT LeftElbow
						{
OFFSET 0 -5.239100 -0.000000
CHANNELS 3 Zrotation Xrotation Yrotation
							JOINT LeftWrist
							{
OFFSET 0 -3.314670 0.000000
CHANNELS 3 Zrotation Xrotation Yrotation
								JOINT lhand
								{
									OFFSET 0 0 0
CHANNELS 3 Zrotation Xrotation Yrotation
									JOINT LFingers
									{
OFFSET 0 -0.965900 0.000000
CHANNELS 3 Zrotation Xrotation Yrotation
										End Site
										{
OFFSET 0 -0.778730 0.000000
										}
									}
								}
								JOINT LThumb
								{
OFFSET 0 0.000000 0.000000
CHANNELS 3 Zrotation Xrotation Yrotation
									End Site
									{
OFFSET 0 -0.790620 0.790620
									}
								}
							}
						}
					}
				}
				JOINT RightCollar
				{
					OFFSET 0 0 0
					CHANNELS 3 Zrotation Yrotation Xrotation
					JOINT RightShoulder
					{
						OFFSET -3.27193 1.31331 0.33940
CHANNELS 3 Zrotation Xrotation Yrotation
						JOINT RightElbow
						{
OFFSET 0 -5.302520 0.000000
CHANNELS 3 Zrotation Xrotation Yrotation
							JOINT RightWrist
							{
OFFSET 0 -3.678750 0.000000
CHANNELS 3 Zrotation Xrotation Yrotation
								JOINT rhand
								{
									OFFSET 0 0 0
CHANNELS 3 Zrotation Xrotation Yrotation
									JOINT RFingers
									{
OFFSET 0 -0.594810 0.000000
CHANNELS 3 Zrotation Xrotation Yrotation
										End Site
										{
OFFSET 0 -0.479550 0.000000
										}
									}
								}
								JOINT RThumb
								{
OFFSET 0 0.000000 0.000000
CHANNELS 3 Zrotation Xrotation Yrotation
									End Site
									{
OFFSET 0 -0.486870 0.486870
									}
								}
							}
						}
					}
				}
			}
		}
	}
}
MOTION
Frames: 12
Frame Time: 0.008333333333333333
10.422800 21.452600 16.291100 9.682200 0.654400 4.930000 0.000000 0.000000 0.000000 -24.646200 3.815900 1.407000 0.009800 -0.639700 -1.757900 0.118800 -7.643800 -7.641800 0.570000 4.835000 13.438700 0.000000 0.000000 0.000000 5.989300 3.948000 9.271100 -0.062500 1.612900 -4.437000 -0.752400 -6.477500 -19.992200 -2.480000 -9.801400 28.336000 -9.900700 -3.373500 -9.938800 -1.757800 -3.360900 -1.895200 3.245700 -1.775400 4.042100 -12.529400 -17.969400 0.720400 4.316500 -24.651300 14.695300 1.451400 -12.469600 6.456000 0.000000 0.000000 0.000000 -0.143300 3.382800 -20.774800 11.965900 -19.753500 2.090800 3.237400 -4.648300 14.538500 0.000000 0.000000 0.000000 -7.125000 0.000000 0.000000 -16.392800 15.787900 -11.814200 0.000000 0.000000 0.000000 -3.833800 6.253000 33.617500 -12.622800 -20.732000 -2.318000 -8.032000 13.595500 41.101200 0.000000 0.000000 0.000000 7.125000 0.000000 -0.000000 38.794200 67.534700 -22.331600
10.421140 21.446421 16.302211 9.264027 0.324846 5.026107 0.000000 0.000000 0.000000 -24.120554 3.399176 1.594827 0.011326 -0.687055 -1.888031 0.157439 -7.110941 -8.068359 0.474387 4.416789 12.252327 0.000000 0.000000 0.000000 6.714361 4.957059 9.542825 -0.064926 1.643894 -4.522427 -0.804358 -7.259767 -21.085480 -2.212524 -9.292710 26.717377 -9.511834 -3.273846 -10.463751 -1.690861 -3.200066 -1.756525 3.095920 -1.710505 4.443562 -13.065418 -16.516779 7.326159 10.377575 -23.352907 4.297041 4.433575 -11.866123 2.858011 0.000000 0.000000 0.000000 -0.043321 3.161866 -20.775429 11.898105 -19.651681 2.067918 3.119558 -4.575286 14.607265 0.000000 0.000000 0.000000 -7.125000 0.000000 0.000000 -16.465803 15.726495 -11.894344 0.000000 0.000000 0.000000 -3.703907 5.910284 33.684804 -12.547510 -20.620645 -2.291511 -8.473247 14.037021 41.284775 0.000000 0.000000 0.000000 7.125000 0.000000 0.000000 38.651426 67.808012 -22.470799
10.422077 21.446281 16.298711 9.037616 0.327312 5.183644 0.000000 0.000000 0.000000 -23.840355 3.361942 1.383525 0.010040 -0.646105 -1.775596 0.149961 -7.078539 -7.927487 0.526039 4.644259 12.897225 0.000000 0.000000 0.000000 7.058955 5.285064 9.529820 -0.064545 1.639719 -4.510919 -0.876874 -7.588337 -22.004474 -2.052542 -8.974474 25.715718 -9.324653 -3.280089 -10.489952 -1.620917 -3.237026 -1.873759 3.062893 -1.719147 4.332373 -13.059219 -16.324205 8.336459 10.995375 -23.127841 2.804000 4.788818 -11.783707 2.298469 0.000000 0.000000 0.000000 -0.083023 3.249748 -20.656532 11.842620 -19.568179 2.049239 2.872511 -4.321170 14.356736 0.000000 0.000000 0.000000 -7.125000 0.000000 0.000000 -16.646960 15.976162 -11.943028 0.000000 0.000000 0.000000 -3.732118 6.019158 33.747170 -12.604200 -20.704518 -2.311498 -8.474855 14.107657 41.365966 0.000000 0.000000 0.000000 7.125000 0.000000 0.000000 38.786634 67.869286 -22.610620
10.422240 21.446945 16.291535 8.838447 0.407675 5.348453 0.000000 0.000000 0.000000 -23.581032 3.364721 1.083317 0.008015 -0.577957 -1.588065 0.134738 -7.063408 -7.658815 0.636883 5.104385 14.206836 0.000000 0.000000 0.000000 7.379827 5.574408 9.497451 -0.063568 1.626178 -4.473703 -0.953845 -7.831552 -22.871335 -1.971932 -8.807239 25.194252 -9.178337 -3.313858 -10.493568 -1.561354 -3.307257 -1.979557 3.036826 -1.745252 4.226568 -13.054219 -16.151203 9.203273 11.570203 -22.919547 1.575961 5.104484 -11.710040 1.839788 0.000000 0.000000 0.000000 -0.106017 3.313704 -20.560845 11.778866 -19.472116 2.027997 2.687863 -4.094651 14.247244 0.000000 0.000000 0.000000 -7.125000 0.000000 0.000000 -16.776964 16.087946 -12.002547 0.000000 0.000000 0.000000 -3.742356 6.098137 33.802305 -12.679640 -20.816012 -2.338222 -8.401357 14.138089 41.479395 0.000000 0.000000 0.000000 7.125000 0.000000 0.000000 39.053937 67.931104 -22.837405
10.422806 21.448664 16.283598 8.725273 0.517145 5.467839 0.000000 0.000000 0.000000 -23.431659 3.382801 0.813521 0.006189 -0.506192 -1.390940 0.118810 -7.068612 -7.379060 0.774326 5.615585 15.673814 0.000000 0.000000 0.000000 7.563158 5.695512 9.441158 -0.062242 1.609492 -4.427552 -1.003017 -7.984995 -23.407391 -1.899167 -8.652505 24.714407 -9.116545 -3.359545 -10.476704 -1.529521 -3.382255 -2.047427 3.027420 -1.777100 4.152925 -12.945277 -16.112274 9.414147 11.572757 -22.863177 1.370417 5.128458 -11.687660 1.727587 0.000000 0.000000 0.000000 -0.119615 3.346783 -20.538915 11.707348 -19.364291 2.004233 2.557467 -3.943775 14.202394 0.000000 0.000000 0.000000 -7.125000 0.000000 0.000000 -16.866503 16.135521 -12.054490 0.000000 0.000000 0.000000 -3.742918 6.129120 33.825131 -12.759650 -20.933987 -2.366729 -8.258021 14.123309 41.577967 0.000000 0.000000 0.000000 7.125000 0.000000 0.000000 39.367867 67.959804 -23.067567
10.423986 21.450907 16.276634 8.662261 0.589405 5.538523 0.000000 0.000000 0.000000 -23.352060 3.364047 0.632829 0.004802 -0.447216 -1.228924 0.110543 -7.037789 -7.215340 0.895871 6.031879 16.877269 0.000000 0.000000 0.000000 7.661036 5.740944 9.385805 -0.061268 1.596608 -4.391920 -1.012118 -8.171397 -23.625376 -1.782939 -8.398048 23.930085 -9.097533 -3.392852 -10.460567 -1.517813 -3.432662 -2.077577 3.023052 -1.799679 4.117830 -12.850881 -16.115864 9.356707 11.446384 -22.860541 1.539323 5.070467 -11.682929 1.761343 0.000000 0.000000 0.000000 -0.127444 3.352393 -20.551490 11.626691 -19.242410 1.977482 2.472380 -3.827766 14.197299 0.000000 0.000000 0.000000 -7.125000 0.000000 0.000000 -16.923097 16.143440 -12.095796 0.000000 0.000000 0.000000 -3.731626 6.101389 33.808805 -12.821327 -21.024816 -2.388799 -8.081531 14.089656 41.642075 0.000000 0.000000 0.000000 7.125000 0.000000 0.000000 39.656297 67.952328 -23.250516
10.427672 21.453401 16.274459 8.630459 0.593571 5.554352 0.000000 0.000000 0.000000 -23.338349 3.316114 0.598610 0.004200 -0.420068 -1.154204 0.111865 -6.994372 -7.220529 0.958584 6.234338 17.465754 0.000000 0.000000 0.000000 7.650622 5.570237 9.291265 -0.061026 1.593943 -4.384750 -0.960487 -8.399345 -23.364822 -1.551032 -7.855489 22.278773 -9.072144 -3.399417 -10.463744 -1.526223 -3.443563 -2.079933 2.998426 -1.804598 4.116480 -12.826368 -16.106417 9.276588 11.409185 -22.846737 1.684109 5.043975 -11.673447 1.808189 0.000000 0.000000 0.000000 -0.139408 3.351948 -20.548801 11.536691 -19.106196 1.948003 2.414570 -3.700235 14.215626 0.000000 0.000000 0.000000 -7.125000 0.000000 0.000000 -16.959900 16.127954 -12.130600 0.000000 0.000000 0.000000 -3.715036 6.039533 33.763175 -12.848637 -21.065039 -2.398665 -7.947976 14.058462 41.661829 0.000000 0.000000 0.000000 7.125000 0.000000 0.000000 39.825224 67.925510 -23.338399
10.436693 21.456146 16.280211 8.621497 0.573582 5.540748 0.000000 0.000000 0.000000 -23.405131 3.329745 0.672787 0.004392 -0.426880 -1.172909 0.113679 -7.016458 -7.262872 0.975844 6.288609 17.624044 0.000000 0.000000 0.000000 7.484088 4.953212 9.080095 -0.061228 1.596567 -4.392016 -0.871074 -8.458862 -22.637066 -1.234542 -7.039357 19.834932 -8.990858 -3.393461 -10.525316 -1.558750 -3.435484 -2.067692 2.917102 -1.801095 4.156127 -12.853129 -16.082799 9.235802 11.434062 -22.819384 1.746450 5.048762 -11.659228 1.835660 0.000000 0.000000 0.000000 -0.160932 3.369526 -20.504447 11.448418 -18.972240 1.919150 2.373810 -3.539928 14.241804 0.000000 0.000000 0.000000 -7.125000 0.000000 0.000000 -16.984754 16.104294 -12.159301 0.000000 0.000000 0.000000 -3.702984 5.991442 33.731535 -12.858767 -21.079890 -2.402274 -7.903105 14.019558 41.665149 0.000000 0.000000 0.000000 7.125000 0.000000 0.000000 39.876100 67.913982 -23.361951
10.450415 21.459137 16.291574 8.638914 0.582521 5.518939 0.000000 0.000000 0.000000 -23.550046 3.430947 0.786400 0.004911 -0.452854 -1.244347 0.108571 -7.129510 -7.221634 0.990764 6.335115 17.759882 0.000000 0.000000 0.000000 7.175050 3.905256 8.750731 -0.061187 1.595840 -4.389863 -0.779295 -8.208559 -21.604469 -0.935890 -6.161769 17.254545 -8.873643 -3.397850 -10.640998 -1.609790 -3.437439 -2.043697 2.791606 -1.803640 4.236167 -12.889389 -16.051490 9.220625 11.445804 -22.782748 1.782807 5.055503 -11.641103 1.849717 0.000000 0.000000 0.000000 -0.190077 3.403087 -20.458167 11.369920 -18.853059 1.893717 2.382652 -3.414552 14.303141 0.000000 0.000000 0.000000 -7.125000 0.000000 0.000000 -16.974159 16.045175 -12.173790 0.000000 0.000000 0.000000 -3.699988 5.973355 33.757473 -12.878179 -21.108399 -2.409244 -7.990119 13.968337 41.665820 0.000000 0.000000 0.000000 7.125000 0.000000 0.000000 39.789550 67.941427 -23.328841
10.465777 21.461733 16.303393 8.704003 0.602865 5.483894 0.000000 0.000000 0.000000 -23.768392 3.563290 0.915242 0.005619 -0.483391 -1.328290 0.099405 -7.279571 -7.124781 1.009806 6.393814 17.931474 0.000000 0.000000 0.000000 6.773511 2.709917 8.386920 -0.060183 1.582908 -4.354314 -0.711989 -7.712370 -20.556839 -0.719274 -5.415238 15.097734 -8.806419 -3.419232 -10.735265 -1.664305 -3.459102 -2.025640 2.688239 -1.815690 4.302933 -12.965625 -16.001926 9.274378 11.489003 -22.730926 1.781022 5.084875 -11.618039 1.848028 0.000000 0.000000 0.000000 -0.228103 3.475822 -20.484153 11.305926 -18.755563 1.873140 2.453285 -3.439340 14.381313 0.000000 0.000000 0.000000 -7.125000 0.000000 0.000000 -16.921660 15.967966 -12.162203 0.000000 0.000000 0.000000 -3.729485 6.018512 33.886172 -12.938042 -21.196341 -2.430807 -8.146725 13.850909 41.640769 0.000000 0.000000 0.000000 7.125000 0.000000 0.000000 39.588173 67.971618 -23.222388
10.476415 21.463473 16.307896 8.770778 0.599739 5.452618 0.000000 0.000000 0.000000 -23.939159 3.603949 1.003207 0.005800 -0.492923 -1.354391 0.094741 -7.367573 -7.083144 1.025339 6.441480 18.070908 0.000000 0.000000 0.000000 6.497821 2.017085 8.178787 -0.059236 1.570789 -4.320782 -0.681538 -7.371179 -19.978371 -0.615949 -5.022255 13.972130 -8.826877 -3.449819 -10.749325 -1.691603 -3.494111 -2.021563 2.664287 -1.833676 4.318573 -13.066699 -15.941758 9.367784 11.583450 -22.670062 1.734276 5.137619 -11.592414 1.834361 0.000000 0.000000 0.000000 -0.274872 3.551525 -20.539031 11.248541 -18.668177 1.854674 2.543620 -3.544482 14.406115 0.000000 0.000000 0.000000 -7.125000 0.000000 0.000000 -16.860254 15.940966 -12.124205 0.000000 0.000000 0.000000 -3.786633 6.088561 34.082231 -13.034754 -21.338067 -2.465907 -8.268862 13.670103 41.569741 0.000000 0.000000 0.000000 7.125000 0.000000 0.000000 39.342628 67.956999 -23.048660
10.479175 21.464230 16.301703 8.803241 0.554270 5.441096 0.000000 0.000000 0.000000 -23.985083 3.486480 1.017292 0.005280 -0.468671 -1.287891 0.100442 -7.335415 -7.170334 1.036641 6.475638 18.170808 0.000000 0.000000 0.000000 6.474416 2.164968 8.215526 -0.059145 1.569856 -4.318333 -0.683678 -7.455567 -20.068135 -0.616502 -5.024872 13.979572 -8.933458 -3.482995 -10.690737 -1.678928 -3.532791 -2.015619 2.733172 -1.853923 4.303704 -13.141137 -15.890203 9.426927 11.698774 -22.612256 1.648847 5.191488 -11.567281 1.814141 0.000000 0.000000 0.000000 -0.323638 3.571946 -20.556069 11.195572 -18.587387 1.837737 2.627891 -3.628318 14.398122 0.000000 0.000000 0.000000 -7.125000 0.000000 0.000000 -16.805268 15.945578 -12.079139 0.000000 0.000000 0.000000 -3.850360 6.125370 34.300395 -13.158233 -21.518664 -2.511054 -8.300445 13.455558 41.484136 0.000000 0.000000 0.000000 7.125000 0.000000 0.000000 39.164337 67.903263 -22.885923
